<svg width="35" height="29" viewBox="0 0 35 29" fill="none" xmlns="http://www.w3.org/2000/svg">
<path fill-rule="evenodd" clip-rule="evenodd" d="M0 3.57395C0 2.01041 1.71348 1.05153 3.04609 1.86933L7.51383 4.61111C8.10653 4.97484 8.46774 5.62032 8.46774 6.31572V22.7311C8.46774 23.4363 8.09639 24.0893 7.49038 24.4499L3.02263 27.1081C1.68947 27.9013 0 26.9406 0 25.3893V3.57395Z" fill="#9155FD"/>
<path opacity="0.077704" fill-rule="evenodd" clip-rule="evenodd" d="M0 9.96291L8.46774 14.7906V19.5235L0 9.96291Z" fill="black"/>
<path opacity="0.077704" fill-rule="evenodd" clip-rule="evenodd" d="M0 9.96291L8.46774 14.6677V17.5589L0 9.96291Z" fill="black"/>
<path fill-rule="evenodd" clip-rule="evenodd" d="M35 3.56768C35 2.00549 33.2891 1.0464 31.9565 1.86151L27.4887 4.5941C26.8946 4.9575 26.5323 5.60381 26.5323 6.30027V22.7311C26.5323 23.4362 26.9036 24.0893 27.5096 24.4499L31.9774 27.1081C33.3105 27.9013 35 26.9406 35 25.3893V3.56768Z" fill="#9155FD"/>
<path opacity="0.077704" fill-rule="evenodd" clip-rule="evenodd" d="M35 9.96291L26.5323 14.7804V19.6663L35 9.96291Z" fill="black"/>
<path opacity="0.077704" fill-rule="evenodd" clip-rule="evenodd" d="M35 9.96291L26.5323 14.6635V17.7018L35 9.96291Z" fill="black"/>
<path fill-rule="evenodd" clip-rule="evenodd" d="M0 3.56091C0 2.00017 1.708 1.04086 3.04077 1.85305L17.5 10.6645L31.9592 1.85305C33.292 1.04086 35 2.00017 35 3.56091V9.96034L19.4794 18.7986C18.2523 19.4974 16.7477 19.4974 15.5206 18.7986L0 9.96034V3.56091Z" fill="#9E69FD"/>
<mask id="mask0_5135_24907" style="mask-type:luminance" maskUnits="userSpaceOnUse" x="0" y="1" width="35" height="19">
<path fill-rule="evenodd" clip-rule="evenodd" d="M0 3.56091C0 2.00017 1.708 1.04086 3.04077 1.85305L17.5 10.6645L31.9592 1.85305C33.292 1.04086 35 2.00017 35 3.56091V9.96034L19.4794 18.7986C18.2523 19.4974 16.7477 19.4974 15.5206 18.7986L0 9.96034V3.56091Z" fill="white"/>
</mask>
<g mask="url(#mask0_5135_24907)">
<path fill-rule="evenodd" clip-rule="evenodd" d="M17.5 10.6645L31.9592 1.85305C33.292 1.04086 35 2.00017 35 3.56091V9.96034L17.5 19.9258V10.6645Z" fill="#B992FE"/>
</g>
</svg>
